<svg xmlns="http://www.w3.org/2000/svg" viewBox="0 0 487 487">
<path d="M0 0 C6.8 4.1 9.8 8.9 12.9 16.2 C12.9 22.8 12.9 29.4 12.9 36.2 C63.1 36.2 113.2 36.2 164.9 36.2 C165.2 29.6 165.6 23 165.9 16.2 C169.7 8.6 172.8 2.7 180.7 -0.8 C187.7 -2.9 194.5 -2.8 201.2 0.2 C207.6 3.8 212.7 9 214.9 16.2 C215.2 19.6 215.1 23 215 26.5 C215 27.4 215 28.3 215 29.3 C215 31.6 215 33.9 214.9 36.2 C216.1 36.2 217.3 36.1 218.5 36.1 C223 36.1 227.4 36 231.9 36 C233.8 36 235.7 36 237.6 35.9 C240.4 35.9 243.2 35.9 246 35.9 C246.8 35.9 247.7 35.8 248.5 35.8 C259.7 35.8 269.8 39.7 278.1 47.2 C287.2 56.7 290.1 66.9 290 79.6 C290 81.7 290 83.8 290 85.9 C289.9 87.1 289.9 88.2 289.9 89.4 C289.9 95.8 289.9 102.3 289.9 108.8 C289.9 109.5 289.9 110.2 289.9 111 C289.9 137 290.2 162.9 290.4 188.9 C290.4 191.5 290.5 194.1 290.5 196.7 C290.6 211.5 290.8 226.3 290.9 241.2 C291.7 241.6 292.6 242 293.4 242.4 C294 242.7 294 242.7 296.7 244 C297.8 244.6 298.8 245.1 299.9 245.6 C303.4 247.4 306.2 249.3 309.3 251.7 C310.3 252.5 311.3 253.3 312.3 254.1 C313.2 254.8 314 255.5 314.9 256.2 C315.4 256.6 315.4 256.6 318.1 258.5 C336 275.3 347.8 299.6 348.9 324.2 C348.9 324.5 348.9 324.5 349.1 326.3 C350.1 350.2 341 375.5 324.9 393.2 C324.5 393.7 324 394.2 323.5 394.7 C315.9 403.1 307.9 409.7 297.9 415.2 C297.6 415.3 297.6 415.3 296.1 416.2 C284.1 422.6 270.6 426.5 256.9 427.2 C256.3 427.2 255.6 427.3 254.9 427.3 C232.2 428 207.7 419.6 190.9 404.2 C190.5 403.6 190 403.1 189.6 402.6 C187.5 400.8 186.4 400.8 183.7 400.8 C183.2 400.8 183.2 400.8 181 400.8 C180.1 400.8 179.1 400.8 178.1 400.8 C177.1 400.8 176.1 400.8 175.1 400.8 C171.7 400.8 168.2 400.8 164.8 400.8 C162.4 400.8 159.9 400.9 157.5 400.9 C152.2 400.9 146.9 400.9 141.7 400.9 C134 400.9 126.4 400.9 118.7 400.9 C106.3 400.9 93.9 401 81.4 401 C69.4 401 57.4 401.1 45.3 401.1 C45 401.1 45 401.1 43.1 401.1 C35 401.1 26.9 401.1 18.9 401.1 C18.1 401.1 17.4 401.1 16.7 401.1 C13.8 401.1 11 401.1 8.1 401.1 C-0.2 401.2 -8.5 401.2 -16.8 401.2 C-22.7 401.2 -28.5 401.2 -34.4 401.2 C-36.8 401.2 -39.2 401.2 -41.6 401.3 C-52.1 401.3 -62.7 401.3 -73.2 400.8 C-73.9 400.8 -74.7 400.7 -75.4 400.7 C-85.2 400.1 -93.1 396.2 -100.1 389.4 C-109.6 378.7 -111.6 366.4 -111.5 352.6 C-111.5 351.4 -111.5 350.2 -111.5 348.9 C-111.5 345.6 -111.5 342.3 -111.5 339 C-111.5 335.4 -111.5 331.8 -111.5 328.2 C-111.5 321.2 -111.5 314.2 -111.5 307.2 C-111.5 301.4 -111.5 295.7 -111.5 290 C-111.5 289.2 -111.5 288.4 -111.5 287.6 C-111.5 285.9 -111.5 284.3 -111.5 282.6 C-111.5 267.1 -111.5 251.6 -111.5 236.1 C-111.5 222.9 -111.5 209.6 -111.5 196.3 C-111.5 180.9 -111.5 165.4 -111.5 150 C-111.5 148.3 -111.5 146.7 -111.5 145 C-111.5 144.2 -111.5 143.4 -111.5 142.6 C-111.5 136.9 -111.5 131.2 -111.5 125.5 C-111.5 118.5 -111.5 111.6 -111.5 104.7 C-111.5 101.1 -111.5 97.6 -111.5 94 C-111.5 90.2 -111.5 86.3 -111.5 82.5 C-111.5 81.4 -111.5 80.3 -111.5 79.1 C-111.4 66.6 -107.6 56.5 -99.2 47.1 C-90.1 38.5 -79.7 36 -67.6 36.1 C-67.2 36.1 -67.2 36.1 -64.9 36.1 C-62 36.1 -59.1 36.1 -56.3 36.1 C-54.3 36.1 -52.4 36.1 -50.4 36.1 C-45.6 36.1 -40.9 36.2 -36.1 36.2 C-36.1 35 -36.1 33.8 -36.1 32.6 C-36.1 31.1 -36.1 29.5 -36.2 28 C-36.2 27.6 -36.2 27.6 -36.2 25.7 C-36.2 17.4 -34.8 10.9 -28.9 4.7 C-20.7 -2.3 -10.1 -4.4 0 0 Z " fill="#E2EAFB" transform="translate(124.0859375,30.828125)"/>
<path d="M0 0 C6.8 4.1 9.8 8.9 12.9 16.2 C12.9 22.8 12.9 29.4 12.9 36.2 C63.1 36.2 113.2 36.2 164.9 36.2 C165.2 29.6 165.6 23 165.9 16.2 C169.7 8.6 172.8 2.7 180.7 -0.8 C187.7 -2.9 194.5 -2.8 201.2 0.2 C207.6 3.8 212.7 9 214.9 16.2 C215.2 19.6 215.1 23 215 26.5 C215 27.4 215 28.3 215 29.3 C215 31.6 215 33.9 214.9 36.2 C216.1 36.2 217.3 36.1 218.5 36.1 C223 36.1 227.4 36 231.9 36 C233.8 36 235.7 36 237.6 35.9 C240.4 35.9 243.2 35.9 246 35.9 C246.8 35.9 247.7 35.8 248.5 35.8 C259.7 35.8 269.8 39.7 278.1 47.2 C285.8 55.2 290 64.6 290.1 75.7 C290.1 76.8 290.1 77.9 290.1 79 C290.1 79.6 290.1 79.6 290.1 82.6 C290.1 83.8 290.1 85 290.1 86.2 C290.1 88.8 290.2 91.3 290.2 93.9 C290.2 97.8 290.2 101.7 290.2 105.6 C290.2 108.1 290.2 110.5 290.2 113 C290.3 114.2 290.3 115.4 290.3 116.6 C290.3 117.7 290.3 118.7 290.3 119.9 C290.3 120.8 290.3 121.8 290.3 122.8 C289.9 125.2 289.9 125.2 288.8 126.8 C286 128.8 283.8 128.5 280.4 128.5 C279.7 128.5 279 128.6 278.4 128.6 C276.1 128.6 273.8 128.6 271.6 128.5 C269.9 128.5 268.3 128.5 266.7 128.5 C262.2 128.6 257.7 128.5 253.2 128.5 C248.4 128.5 243.5 128.5 238.7 128.5 C229.2 128.5 219.7 128.5 210.2 128.5 C199.2 128.5 188.2 128.5 177.1 128.5 C157.5 128.5 137.8 128.5 118.1 128.5 C99 128.4 79.9 128.4 60.7 128.4 C60.1 128.4 60.1 128.4 57.2 128.4 C54.8 128.4 52.4 128.4 50.1 128.4 C48.9 128.4 47.7 128.4 46.5 128.4 C45.3 128.4 44.2 128.4 43 128.4 C24.8 128.4 6.6 128.4 -11.6 128.4 C-18.2 128.4 -24.8 128.4 -31.4 128.4 C-41.9 128.4 -52.4 128.4 -62.8 128.3 C-67.6 128.3 -72.4 128.3 -77.2 128.3 C-81.6 128.3 -86 128.3 -90.3 128.3 C-91.9 128.3 -93.5 128.3 -95.1 128.3 C-97.3 128.3 -99.4 128.3 -101.6 128.3 C-102.8 128.3 -104 128.3 -105.2 128.3 C-108.1 128.2 -108.1 128.2 -111.1 127.2 C-111.2 119.9 -111.2 112.7 -111.2 105.4 C-111.3 102 -111.3 98.7 -111.3 95.3 C-111.3 91.4 -111.4 87.5 -111.4 83.6 C-111.4 82.4 -111.4 81.2 -111.4 80 C-111.4 67 -108 56.9 -99.2 47.1 C-90.1 38.5 -79.7 36 -67.6 36.1 C-67.2 36.1 -67.2 36.1 -64.9 36.1 C-62 36.1 -59.1 36.1 -56.3 36.1 C-54.3 36.1 -52.4 36.1 -50.4 36.1 C-45.6 36.1 -40.9 36.2 -36.1 36.2 C-36.1 35 -36.1 33.8 -36.1 32.6 C-36.1 31.1 -36.1 29.5 -36.2 28 C-36.2 27.6 -36.2 27.6 -36.2 25.7 C-36.2 17.4 -34.8 10.9 -28.9 4.7 C-20.7 -2.3 -10.1 -4.4 0 0 Z " fill="#1D54DA" transform="translate(124.0859375,30.828125)"/>
<path d="M0 0 C17.8 16.6 29.5 41.1 30.6 65.4 C30.6 66.1 30.7 66.8 30.8 67.5 C31.7 91.4 22.7 116.8 6.6 134.4 C6.1 134.9 5.7 135.4 5.2 135.9 C-2.5 144.3 -10.5 151 -20.4 156.4 C-21 156.7 -21.6 157.1 -22.2 157.4 C-34.2 163.9 -47.7 167.8 -61.4 168.4 C-62.1 168.5 -62.7 168.5 -63.4 168.5 C-86.1 169.2 -110.6 160.9 -127.4 145.4 C-127.8 145.1 -127.8 145.1 -129.7 143.3 C-138.2 135.2 -144.7 126.1 -150.3 115.7 C-150.5 115.4 -150.5 115.4 -151.4 113.6 C-155.5 105.6 -157.8 97.6 -159.1 88.7 C-159.2 87.8 -159.3 87 -159.5 86.1 C-162.8 61.1 -157.3 36.1 -142.3 15.6 C-140.4 13.1 -138.4 10.8 -136.4 8.4 C-136 7.9 -135.5 7.3 -135.1 6.8 C-131.5 2.5 -127.8 -0.9 -123.3 -4.1 C-122.6 -4.6 -122 -5 -121.3 -5.5 C-83.3 -32.4 -35.6 -29.9 0 0 Z " fill="#FDC43D" transform="translate(442.40234375,289.58984375)"/>
<path d="M0 0 C5.2 3.7 9.5 8.4 11.3 14.6 C11.5 18.1 11.5 21.5 11.4 24.9 C11.4 25.9 11.4 26.8 11.4 27.8 C11.4 30 11.3 32.3 11.3 34.6 C11.6 34.8 11.6 34.8 13.3 35.6 C13.1 36 13.1 36 12.3 37.6 C12.2 39.2 12.1 40.8 12.1 42.3 C12.1 42.8 12.1 42.8 12 45.2 C11.9 47.2 11.9 49.1 11.9 51.1 C11.6 60.5 9.9 68 3.3 74.9 C-2.4 79.8 -8.5 81.4 -15.9 81.1 C-23.8 79.8 -29.3 75.7 -34.3 69.7 C-37.1 65.5 -38 61.8 -38.1 56.8 C-38.1 55.7 -38.2 54.6 -38.2 53.4 C-38.2 52.9 -38.2 52.9 -38.3 50 C-38.3 47.7 -38.4 45.5 -38.5 43.2 C-38.5 42.7 -38.5 42.7 -38.5 40.2 C-38.7 37.6 -38.7 37.6 -39.7 34.6 C-39.4 33 -39.1 31.3 -38.7 29.6 C-38.6 27.2 -38.5 24.8 -38.4 22.3 C-37.9 13.1 -35.4 7.4 -28.6 1.1 C-20.1 -5.5 -9.1 -5.1 0 0 Z " fill="#C2D2F7" transform="translate(327.703125,32.375)"/>
<path d="M0 0 C6.1 3.8 11 9.1 12.9 16.2 C13.2 19.7 13.2 23.1 13.1 26.6 C13.1 27.1 13.1 27.1 13.1 29.4 C13 31.7 13 33.9 12.9 36.2 C13.9 36.5 14.9 36.8 15.9 37.2 C15.3 37.2 14.6 37.2 13.9 37.2 C13.9 37.9 13.9 38.6 13.9 39.4 C13.9 42.8 13.8 46.2 13.7 49.5 C13.7 50.7 13.7 51.9 13.7 53.1 C13.5 61.5 12 68.6 6.2 75.1 C0.2 80.6 -6.1 82.8 -14.2 82.6 C-20.4 81.7 -25.9 78.9 -30 74.2 C-35.1 66.7 -35.6 61 -35.7 52 C-35.8 49.6 -35.8 47.3 -35.9 44.9 C-35.9 43.9 -35.9 42.9 -35.9 41.8 C-36.1 39.2 -36.1 39.2 -37.1 36.2 C-37 13.3 -37 13.3 -28.9 4.7 C-20.7 -2.3 -10.1 -4.4 0 0 Z " fill="#C2D2F7" transform="translate(124.0859375,30.828125)"/>
<path d="M0 0 C0.7 -0 1.4 -0 2.2 -0 C3.6 0 5.1 0 6.6 0 C8.9 0.1 11.2 0 13.4 0 C25.9 0.1 25.9 0.1 30.3 2.4 C35.1 7.6 35.4 11.7 35.4 18.6 C35.4 19.3 35.4 20.1 35.4 21 C35.3 26.4 35.2 31.8 35 37.2 C34.9 37.8 34.9 37.8 34.8 41 C34.2 44.6 33.6 46.5 31.3 49.4 C27.1 51.6 23 51.7 18.4 51.7 C17.6 51.7 16.9 51.7 16.1 51.7 C14.5 51.7 12.9 51.7 11.3 51.7 C8.9 51.7 6.5 51.7 4.1 51.7 C2.5 51.7 1 51.7 -0.6 51.7 C-1.3 51.7 -2 51.7 -2.7 51.8 C-7.9 51.7 -11.3 50.9 -15.7 48.4 C-18.3 44.4 -18 40 -18 35.4 C-18 34.6 -18 33.9 -18 33.1 C-18 31.5 -18 29.9 -18 28.3 C-18 25.9 -18.1 23.4 -18.1 21 C-18.1 19.4 -18.1 17.9 -18.1 16.3 C-18.1 15.6 -18.1 14.9 -18.1 14.1 C-18.1 9.7 -17.7 6.7 -14.7 3.4 C-9.7 0.6 -5.7 -0 0 0 Z " fill="#3E74E5" transform="translate(165.7265625,338.63671875)"/>
<path d="M0 0 C2.2 -0 4.4 -0 6.6 -0.1 C8 -0.1 9.5 -0.1 10.9 -0.1 C12.1 -0.1 13.4 -0.1 14.7 -0.1 C19.7 0.4 23.6 1.6 27.3 5 C28.9 8.2 28.9 10.9 29 14.4 C29 14.7 29 14.7 29.1 16.5 C29.1 17.9 29.1 19.4 29.2 20.8 C29.2 23 29.3 25.2 29.4 27.4 C29.4 28.9 29.5 30.3 29.5 31.7 C29.5 33 29.6 34.3 29.6 35.6 C29.4 40.4 28.5 44.6 25.8 48.6 C19.4 53 9.3 51.5 1.8 51.5 C-0.3 51.5 -2.4 51.5 -4.5 51.6 C-5.9 51.6 -7.2 51.6 -8.6 51.6 C-9.8 51.6 -11 51.6 -12.3 51.6 C-16.8 51.1 -19.3 49.6 -22.4 46.4 C-23.8 43.9 -24 42.2 -24.1 39.4 C-24.1 38.9 -24.1 38.9 -24.2 36.5 C-24.2 35.5 -24.3 34.6 -24.3 33.6 C-24.3 32.6 -24.3 31.6 -24.4 30.7 C-24.5 27.9 -24.5 25 -24.6 22.2 C-24.6 21.4 -24.6 20.6 -24.7 19.7 C-24.7 13.3 -24.3 7 -19.7 2.2 C-13.5 -0.7 -6.7 0 0 0 Z " fill="#3E74E5" transform="translate(92.589111328125,338.759765625)"/>
<path d="M0 0 C0.5 0 0.5 0 3.1 0.1 C9.1 0.3 13 0.7 17.5 4.8 C19.4 10.6 18.8 17.1 18.9 23.1 C18.9 24.8 18.9 26.5 18.9 28.1 C19 30.6 19 33 19 35.5 C19 36.2 19.1 37 19.1 37.7 C19.1 41.7 18.6 44.2 16.2 47.3 C9.3 53.8 -4.2 52 -13.2 51.9 C-14.3 51.9 -15.4 51.8 -16.5 51.8 C-17.5 51.8 -18.4 51.8 -19.4 51.8 C-23.5 51.5 -26.6 51.2 -30 48.6 C-36 41.8 -34.8 33.4 -34.5 24.8 C-34.5 24.1 -34.5 23.4 -34.4 22.6 C-34.4 20.5 -34.3 18.3 -34.2 16.2 C-34.1 14.9 -34.1 13.6 -34 12.3 C-33.3 7.7 -31.9 5.2 -28.7 2 C-21.1 -2.3 -8.5 -0.2 0 0 Z " fill="#3E74E5" transform="translate(102.5,269.1875)"/>
<path d="M0 0 C0.6 0 0.6 0 3.6 0.1 C4.7 0.1 5.9 0.2 7.1 0.2 C8.1 0.3 9.1 0.3 10.2 0.3 C13.4 0.9 15.3 1.9 18 3.8 C20.1 7 20.3 8.1 20.4 11.8 C20.5 12.8 20.5 13.8 20.6 14.9 C20.6 15.9 20.7 17 20.7 18.1 C20.7 19.1 20.8 20.2 20.8 21.3 C21.5 44 21.5 44 18.1 48.1 C12.9 52.2 5.8 51.2 -0.6 51.4 C-1.8 51.5 -3 51.5 -4.3 51.6 C-23.6 52.3 -23.6 52.3 -28.6 48.5 C-33.6 42.9 -32.2 35.3 -32.2 28.1 C-32.2 25.9 -32.2 23.7 -32.2 21.4 C-32.2 20 -32.2 18.6 -32.2 17.2 C-32.2 15.9 -32.2 14.6 -32.2 13.3 C-32 9.1 -31.2 6.4 -28.7 3.1 C-21.5 -2.1 -8.4 -0.4 0 0 Z " fill="#3E74E5" transform="translate(259,269.1875)"/>
<path d="M0 0 C1 0 2.1 0 3.1 0.1 C9.1 0.3 13 0.7 17.5 4.8 C18.7 8.4 18.8 11.8 18.9 15.6 C18.9 16.3 19 17.1 19 17.9 C19.1 19.5 19.1 21.1 19.2 22.7 C19.2 25.2 19.4 27.6 19.5 30.1 C19.5 31.6 19.6 33.2 19.6 34.8 C19.6 35.5 19.7 36.2 19.7 37 C19.8 41.5 19.4 44.3 16.5 47.8 C13 50.5 10.4 51.2 6 51.4 C5 51.4 3.9 51.4 2.8 51.5 C2.3 51.5 2.3 51.5 -0.5 51.6 C-1.1 51.6 -1.1 51.6 -3.9 51.7 C-25.4 52.2 -25.4 52.2 -30.2 48.5 C-35.1 42.8 -33.7 35.2 -33.7 28.1 C-33.7 25.9 -33.7 23.7 -33.7 21.4 C-33.7 20 -33.7 18.6 -33.7 17.2 C-33.7 15.9 -33.7 14.6 -33.7 13.3 C-33.4 8.6 -32.6 5.9 -29.2 2.6 C-21.5 -2.4 -8.9 -0.2 0 0 Z " fill="#3E74E5" transform="translate(181.5,269.1875)"/>
<path d="M0 0 C18.4 -0.2 18.4 -0.2 24.3 2.5 C29.9 9.9 28.5 21.1 28.2 29.8 C28.1 31.1 28.1 32.4 28.1 33.7 C27.8 44.2 27.8 44.2 24.9 47.9 C20.4 51.5 16.2 51.2 10.6 51.2 C9.8 51.2 9.1 51.3 8.3 51.3 C6.8 51.3 5.2 51.3 3.7 51.3 C1.3 51.3 -1.1 51.3 -3.4 51.3 C-5 51.3 -6.5 51.3 -8 51.3 C-8.3 51.3 -8.3 51.3 -10.1 51.3 C-15.6 51.3 -19 50.7 -23.1 47 C-25.3 43.2 -25.4 40 -25.3 35.7 C-25.3 34.9 -25.4 34.1 -25.4 33.3 C-25.4 31.6 -25.4 29.9 -25.3 28.2 C-25.3 25.7 -25.4 23.1 -25.4 20.5 C-25.4 18.9 -25.4 17.2 -25.4 15.6 C-25.4 15.2 -25.4 15.2 -25.4 13.3 C-25.4 9.3 -24.9 6.8 -22.5 3.6 C-19 0.3 -17 0.3 -12.3 0.2 C-12 0.2 -12 0.2 -10.2 0.1 C-6.8 0.1 -3.4 0.1 0 0 Z " fill="#3E74E5" transform="translate(93.7734375,199.921875)"/>
<path d="M0 0 C3.1 -0 6.1 -0 9.2 0.1 C10 0.1 10.8 0.1 11.6 0.1 C15.5 0.4 17.1 1 20.1 3.5 C24.7 9.2 23.5 16.3 23.6 23.3 C23.6 25 23.6 26.7 23.6 28.4 C23.7 30.8 23.7 33.3 23.7 35.7 C23.8 36.4 23.8 37.2 23.8 38 C23.8 41.9 23.3 44.5 20.9 47.5 C16.4 51.8 12.5 51.2 6.6 51.3 C5.8 51.3 5.1 51.3 4.3 51.3 C2.8 51.3 1.2 51.3 -0.3 51.3 C-2.7 51.3 -5.1 51.3 -7.5 51.3 C-9 51.3 -10.5 51.3 -12 51.3 C-12.4 51.3 -12.4 51.3 -14.1 51.3 C-19 51.3 -22.7 50.8 -26.6 47.7 C-30.8 42.1 -29 30 -29 23.3 C-29 22.1 -29 20.9 -29 19.7 C-29 18.5 -29 17.4 -29 16.2 C-29 15.1 -29 14.1 -29 13 C-28.7 8.7 -27.6 6 -24.7 2.8 C-20.8 0.5 -17.7 0.4 -13.3 0.3 C-12.5 0.3 -11.7 0.3 -10.9 0.3 C-7.3 0.1 -3.6 0.1 0 0 Z " fill="#3E74E5" transform="translate(176.7890625,199.9140625)"/>
<path d="M0 0 C1.1 0 2.3 0 3.5 0.1 C11.7 0.3 11.7 0.3 15.7 2.7 C19.7 7.4 18.9 12.9 19.1 18.8 C19.2 20.8 19.3 22.8 19.4 24.7 C20 42.4 20 42.4 15.6 48.4 C11.4 51.3 6.9 51 1.8 51 C1.1 51 0.4 51 -0.4 51 C-1.9 51 -3.5 51 -5.1 51 C-7.4 51 -9.8 51 -12.2 51 C-13.7 51 -15.2 51 -16.7 51 C-17.1 51 -17.1 51 -18.9 51.1 C-23.7 51 -27.4 50.5 -31.2 47.4 C-35.2 42.3 -33.8 33.6 -33.9 27.3 C-33.9 25.7 -33.9 24.2 -33.9 22.6 C-34 20.3 -34 18 -34 15.7 C-34 15 -34.1 14.3 -34.1 13.6 C-34.1 9.7 -33.5 7.3 -31.1 4.4 C-23.8 -2.8 -9.5 -0.3 0 0 Z " fill="#3E74E5" transform="translate(260.5,200.1875)"/>
<path d="M0 0 C0.4 -0 0.4 -0 2.6 -0 C4.4 -0 6.1 -0 7.9 0 C10.6 0 13.4 0 16.1 -0 C17.8 -0 19.6 -0 21.3 0 C22.1 -0 22.9 -0 23.8 -0 C27.8 0 29.7 0.2 33.1 2.4 C38 7.5 36.5 15.5 36.5 22.2 C36.5 23.9 36.6 25.6 36.6 27.4 C36.6 29.9 36.7 32.4 36.7 34.9 C36.7 35.7 36.7 36.5 36.7 37.3 C36.7 41.3 36.3 43.8 33.7 47 C28.7 51.9 22.7 50.7 16 50.6 C15.6 50.6 15.6 50.6 13.6 50.6 C11.9 50.5 10.2 50.5 8.4 50.5 C5.6 50.5 2.8 50.4 -0 50.3 C-0.9 50.3 -1.8 50.3 -2.7 50.3 C-7.2 50.2 -9.3 50 -12.9 47.2 C-17.1 41.3 -16 34.2 -16 27.3 C-16 25.1 -16 22.9 -16.1 20.8 C-16.1 19.4 -16.1 18 -16.1 16.7 C-16.1 15.4 -16.1 14.2 -16.1 12.9 C-15.7 8.2 -14.9 5.7 -11.8 2.3 C-7.8 -0.1 -4.6 -0 0 0 Z " fill="#3D73E4" transform="translate(321.84375,200.46875)"/>
<path d="M0 0 C4.1 3.8 4.2 9.8 4.4 15.1 C4.5 17 4.5 18.9 4.5 20.8 C4.6 21.9 4.6 22.9 4.6 23.9 C4.7 27.1 4.7 30.3 4.8 33.5 C4.8 35.7 4.8 37.9 4.9 40 C5 45.4 5 50.7 5.1 56 C6.8 56.9 8.6 57.7 10.3 58.6 C11.8 59.3 13.2 60.1 14.7 60.8 C18.7 62.8 22.7 64.8 26.7 66.8 C28.3 67.5 29.9 68.3 31.4 69.1 C32.2 69.5 33.1 69.9 33.9 70.3 C38.7 72.8 41.4 74.6 43.1 80 C43.1 84.4 42.6 86.4 39.9 89.9 C36.7 92.3 35.2 92.8 31.1 93 C28.4 92.1 25.9 91.1 23.3 89.8 C22.6 89.5 21.8 89.1 21 88.7 C19.3 87.9 17.6 87.1 16 86.3 C12.8 84.9 9.7 83.4 6.6 82 C4.3 81 2.1 79.9 -0.2 78.9 C-1.3 78.4 -2.3 77.9 -3.5 77.4 C-9.3 74.7 -13.4 72.5 -16.9 67 C-17.9 63.9 -18 61 -18 57.7 C-18 56.6 -18.1 55.6 -18.1 54.5 C-18.1 53.4 -18.1 52.2 -18.1 51 C-18.1 49.9 -18.1 48.7 -18.1 47.5 C-18.1 45 -18.1 42.5 -18.1 40 C-18.1 36.2 -18.2 32.4 -18.2 28.6 C-18.2 26.2 -18.2 23.8 -18.2 21.4 C-18.2 20.2 -18.2 19.1 -18.2 17.9 C-18.2 11 -17.9 5.5 -13.2 0.1 C-8.7 -2 -4.5 -1.6 0 0 Z " fill="#1A4391" transform="translate(379.875,300)"/>
<path d="M0 0 C0.4 0.1 0.4 0.1 2.3 0.7 C3.3 7.7 3.4 14.6 3.3 21.7 C2.3 22 1.3 22.3 0.3 22.7 C-4.7 19.7 -4.7 19.7 -6.7 17.7 C-6.7 15.2 -6.6 12.8 -6.4 10.3 C-6.4 9.6 -6.4 8.9 -6.4 8.2 C-6.2 5.3 -6 3.2 -4.3 0.7 C-2.7 -0.3 -2.7 -0.3 0 0 Z " fill="#C2D2F7" transform="translate(224.6875,206.3125)"/>
<path d="M0 0 C1.3 0.3 2.7 0.7 4 1 C5.7 1.1 7.3 1.2 9 1.3 C9.5 1.3 9.5 1.3 11.8 1.4 C12.8 1.5 13.8 1.5 14.8 1.6 C15.7 1.6 16.7 1.6 17.7 1.7 C20.2 1.8 22.6 1.9 25 2 C26 4 26 4 25.2 6.5 C24 9 24 9 22 11 C18.5 11.6 17.2 11.1 14.2 9.1 C13.5 8.4 12.7 7.7 12 7 C12 6.3 12 5.7 12 5 C10.4 5 8.7 5 7 5 C7 5.7 7 6.3 7 7 C1.4 7.2 1.4 7.2 -2 5 C-1.1 1.1 -1.1 1.1 0 0 Z " fill="#C2D2F7" transform="translate(308,248)"/>
<path d="M0 0 C1 3.6 2 7.3 3 11 C0.9 13.5 0.9 13.5 -2 16 C-5.7 16.2 -5.7 16.2 -9 16 C-8.9 13.7 -8.8 11.5 -8.7 9.2 C-8.6 7.9 -8.6 6.7 -8.5 5.4 C-8 2 -8 2 -6.8 -0 C-5 -1 -5 -1 0 0 Z " fill="#C2D2F7" transform="translate(286,388)"/>
<path d="M0 0 C0 6.3 0 12.5 0 19 C-4.1 17 -4.5 16.7 -6.2 12.9 C-8 9 -8 9 -9 8 C-9 6 -9 4 -9 2 C-5.5 -0.1 -4.4 0 0 0 Z " fill="#C2D2F7" transform="translate(69,222)"/>
<path d="M0 0 C2.9 1.3 5.3 2.8 7.8 4.9 C8.4 5.4 9 5.9 9.6 6.4 C11 8 11 8 11 12 C7.3 12.8 4.8 13.3 1.2 11.9 C-1.5 9.6 -2.6 7.3 -4 4 C-2.7 2.7 -1.4 1.4 0 0 Z " fill="#C2D2F7" transform="translate(278,315)"/>
<path d="M0 0 C0 4.6 0 9.2 0 14 C-3.4 13.7 -3.4 13.7 -7 13 C-9.3 9.5 -9.4 8.1 -9 4 C-6.7 -0.1 -4.7 -1.6 0 0 Z " fill="#C2D2F7" transform="translate(307,216)"/>
</svg>
